<?xml version="1.0" encoding="UTF-8"?>
<svg version="1.1" xmlns="http://www.w3.org/2000/svg" width="1024" height="1024">
<path d="M0 0 C2.42819983 -0.00374177 4.85639845 -0.00834538 7.28459519 -0.01373065 C12.54118587 -0.02337534 17.79774279 -0.02688446 23.05434036 -0.02481842 C30.87199063 -0.0217534 38.68960056 -0.03012554 46.50724295 -0.04056767 C61.2876784 -0.05985985 76.06809992 -0.06553414 90.84854648 -0.06668179 C102.27003749 -0.0676028 113.69152307 -0.07172951 125.11301231 -0.07808304 C128.40723917 -0.07987829 131.70146604 -0.08165792 134.99569291 -0.08343279 C135.81478457 -0.08387489 136.63387624 -0.08431699 137.47778886 -0.08477248 C160.50300828 -0.09707287 183.52822583 -0.10497444 206.55344868 -0.10408592 C207.85432428 -0.10403919 207.85432428 -0.10403919 209.18148019 -0.10399151 C213.57649605 -0.1038253 217.97151191 -0.10362722 222.36652777 -0.10342209 C223.23930241 -0.1033822 224.11207705 -0.10334231 225.0112994 -0.10330121 C226.77626231 -0.10322034 228.54122522 -0.10313674 230.30618814 -0.10305043 C257.7460727 -0.10182581 285.18590778 -0.1168249 312.6257782 -0.14419556 C343.49713252 -0.17497679 374.36845433 -0.19212437 405.23982495 -0.19026911 C408.53750972 -0.19011987 411.83519449 -0.19002244 415.13287926 -0.18996048 C415.94477361 -0.18993717 416.75666797 -0.18991386 417.59316519 -0.18988985 C430.60835537 -0.18982853 443.62350229 -0.20255178 456.63867964 -0.21982501 C469.74140008 -0.23685358 482.84405784 -0.23869923 495.94678328 -0.22560637 C503.7108407 -0.21826465 511.47470655 -0.22173032 519.23874331 -0.24149105 C525.06564293 -0.25505629 530.89236916 -0.24725101 536.71925678 -0.2317446 C539.05437259 -0.2287015 541.38950971 -0.23220355 543.72460035 -0.24346475 C598.18551405 -0.48840562 650.21587769 17.43558384 692.8589325 51.26742554 C693.40291687 51.69426636 693.94690125 52.12110718 694.50737 52.56088257 C709.45435299 64.37996769 723.45924726 78.19754271 734.66459656 93.62875366 C735.86126671 95.27062816 737.08751957 96.88659342 738.31987 98.50180054 C769.36960919 139.81778828 783.20139931 190.30812047 783.12635803 241.40849304 C783.1300998 243.83669287 783.13470342 246.26489149 783.14008868 248.69308823 C783.14973337 253.94967891 783.15324249 259.20623584 783.15117645 264.4628334 C783.14811143 272.28048367 783.15648357 280.0980936 783.1669257 287.91573599 C783.18621788 302.69617144 783.19189217 317.47659296 783.19303982 332.25703952 C783.19396084 343.67853053 783.19808754 355.10001611 783.20444107 366.52150536 C783.20623632 369.81573221 783.20801595 373.10995908 783.20979083 376.40418595 C783.21023292 377.22327762 783.21067502 378.04236928 783.21113051 378.8862819 C783.2234309 401.91150132 783.23133247 424.93671887 783.23044395 447.96194172 C783.2304128 448.82919212 783.23038164 449.69644252 783.23034954 450.58997323 C783.23018334 454.98498909 783.22998526 459.38000495 783.22978012 463.77502082 C783.22972029 465.08418277 783.22972029 465.08418277 783.22965924 466.41979244 C783.22957837 468.18475536 783.22949477 469.94971827 783.22940846 471.71468118 C783.22818385 499.15456575 783.24318293 526.59440083 783.27055359 554.03427124 C783.30133482 584.90562556 783.3184824 615.77694737 783.31662714 646.64831799 C783.3164779 649.94600276 783.31638048 653.24368753 783.31631851 656.5413723 C783.31628355 657.75921383 783.31628355 657.75921383 783.31624788 659.00165823 C783.31618656 672.01684841 783.32890982 685.03199533 783.34618304 698.04717268 C783.36321161 711.14989313 783.36505726 724.25255089 783.3519644 737.35527632 C783.34462268 745.11933374 783.34808835 752.8831996 783.36784908 760.64723635 C783.38141432 766.47413597 783.37360904 772.3008622 783.35810263 778.12774982 C783.35505953 780.46286563 783.35856159 782.79800276 783.36982279 785.13309339 C783.61476366 839.59400709 765.6907742 891.62437073 731.8589325 934.26742554 C731.43209167 934.81140991 731.00525085 935.35539429 730.56547546 935.91586304 C718.74639034 950.86284603 704.92881533 964.8677403 689.49760437 976.0730896 C687.85572987 977.26975975 686.23976462 978.49601261 684.6245575 979.72836304 C643.30856975 1010.77810223 592.81823756 1024.60989235 541.71786499 1024.53485107 C539.28966516 1024.53859285 536.86146654 1024.54319646 534.4332698 1024.54858172 C529.17667912 1024.55822642 523.9201222 1024.56173553 518.66352463 1024.55966949 C510.84587436 1024.55660447 503.02826443 1024.56497661 495.21062204 1024.57541875 C480.43018659 1024.59471092 465.64976507 1024.60038521 450.86931851 1024.60153286 C439.4478275 1024.60245388 428.02634192 1024.60658058 416.60485268 1024.61293411 C413.31062582 1024.61472936 410.01639895 1024.61650899 406.72217208 1024.61828387 C405.90308042 1024.61872596 405.08398875 1024.61916806 404.24007613 1024.61962355 C381.21485671 1024.63192395 358.18963917 1024.63982552 335.16441631 1024.638937 C333.86354071 1024.63889026 333.86354071 1024.63889026 332.5363848 1024.63884258 C328.14136894 1024.63867638 323.74635308 1024.6384783 319.35133722 1024.63827316 C318.47856258 1024.63823327 317.60578794 1024.63819338 316.70656559 1024.63815228 C314.94160268 1024.63807141 313.17663977 1024.63798781 311.41167685 1024.6379015 C283.97179229 1024.63667689 256.53195721 1024.65167597 229.09208679 1024.67904663 C198.22073247 1024.70982786 167.34941066 1024.72697544 136.47804004 1024.72512019 C133.18035527 1024.72497094 129.8826705 1024.72487352 126.58498573 1024.72481155 C125.3671442 1024.72477659 125.3671442 1024.72477659 124.1246998 1024.72474092 C111.10950962 1024.7246796 98.0943627 1024.73740286 85.07918535 1024.75467608 C71.97646491 1024.77170465 58.87380715 1024.7735503 45.77108171 1024.76045744 C38.00702429 1024.75311573 30.24315844 1024.75658139 22.47912168 1024.77634212 C16.65222206 1024.78990737 10.82549583 1024.78210208 4.99860821 1024.76659568 C2.6634924 1024.76355257 0.32835528 1024.76705463 -2.00673536 1024.77831583 C-56.46764906 1025.0232567 -108.4980127 1007.09926724 -151.1410675 973.26742554 C-151.68505188 972.84058472 -152.22903625 972.4137439 -152.789505 971.97396851 C-167.736488 960.15488339 -181.74138227 946.33730837 -192.94673157 930.90609741 C-194.14340172 929.26422291 -195.36965458 927.64825766 -196.602005 926.03305054 C-227.6517442 884.7170628 -241.48353432 834.2267306 -241.40849304 783.12635803 C-241.41223481 780.6981582 -241.41683843 778.26995958 -241.42222369 775.84176284 C-241.43186838 770.58517216 -241.4353775 765.32861524 -241.43331146 760.07201767 C-241.43024644 752.2543674 -241.43861858 744.43675747 -241.44906071 736.61911508 C-241.46835289 721.83867963 -241.47402718 707.05825811 -241.47517483 692.27781155 C-241.47609585 680.85632055 -241.48022255 669.43483496 -241.48657608 658.01334572 C-241.48837133 654.71911886 -241.49015096 651.42489199 -241.49192584 648.13066512 C-241.49236793 647.31157346 -241.49281003 646.49248179 -241.49326552 645.64856917 C-241.50556591 622.62334975 -241.51346748 599.59813221 -241.51257896 576.57290936 C-241.51254781 575.70565896 -241.51251665 574.83840856 -241.51248455 573.94487784 C-241.51231835 569.54986198 -241.51212027 565.15484612 -241.51191513 560.75983026 C-241.51187524 559.88705562 -241.51183535 559.01428098 -241.51179425 558.11505863 C-241.51171338 556.35009572 -241.51162978 554.58513281 -241.51154347 552.8201699 C-241.51031886 525.38028533 -241.52531794 497.94045025 -241.5526886 470.50057983 C-241.58346983 439.62922551 -241.60061741 408.75790371 -241.59876215 377.88653308 C-241.59861291 374.58884831 -241.59851549 371.29116355 -241.59845352 367.99347878 C-241.59843021 367.18158442 -241.5984069 366.36969006 -241.59838289 365.53319285 C-241.59832157 352.51800266 -241.61104482 339.50285575 -241.62831805 326.48767839 C-241.64534662 313.38495795 -241.64719227 300.28230019 -241.63409941 287.17957475 C-241.62675769 279.41551733 -241.63022336 271.65165148 -241.64998409 263.88761472 C-241.66354933 258.06071511 -241.65574405 252.23398887 -241.64023764 246.40710125 C-241.63719454 244.07198544 -241.6406966 241.73684832 -241.6519578 239.40175768 C-241.89689866 184.94084398 -223.97290921 132.91048034 -190.1410675 90.26742554 C-189.71422668 89.72344116 -189.28738586 89.17945679 -188.84761047 88.61898804 C-177.02852535 73.67200505 -163.21095033 59.66711077 -147.77973938 48.46176147 C-146.13786488 47.26509132 -144.52189963 46.03883846 -142.9066925 44.80648804 C-101.59070476 13.75674884 -51.10037257 -0.07504128 0 0 Z " fill="#FCFCFC" transform="translate(241.1410675048828,-0.267425537109375)"/>
<path d="M0 0 C14.09970555 12.36370576 24.43928962 30.26579392 26.35688281 49.08863044 C26.7166117 55.10257092 26.65952337 61.1212767 26.62670898 67.14331055 C26.63050045 69.14573546 26.63600726 71.14815773 26.64308167 73.15057373 C26.65694289 78.54506071 26.64593372 83.93922542 26.62937045 89.33369422 C26.61543184 95.0015023 26.62198979 100.66929335 26.62550354 106.33711243 C26.62819807 115.8482477 26.61479311 125.35925622 26.59155273 134.87036133 C26.56492489 145.84327416 26.56320609 156.81597552 26.5749411 167.78890961 C26.58574358 178.37954691 26.5795139 188.97010823 26.56538582 199.56073952 C26.55964976 204.05286279 26.55968983 208.54493002 26.56445122 213.03705406 C26.56924587 218.33056472 26.55901675 223.62384561 26.53749657 228.91731262 C26.53196316 230.85218341 26.53143145 232.78707643 26.53644943 234.72194862 C26.55934645 244.8220003 26.37557788 254.12165997 23.125 263.8125 C22.90249793 264.48405971 22.67999586 265.15561941 22.4507513 265.84752941 C19.35497626 274.48098089 14.83851073 281.69952611 9.125 288.8125 C8.50625 289.63878906 7.8875 290.46507812 7.25 291.31640625 C-3.82358255 304.32379458 -22.42421244 313.56714758 -39.27734375 315.01953125 C-59.32067549 316.10045053 -77.54689464 311.47300828 -93.1328125 298.38671875 C-95.4809712 296.26495203 -97.71973506 294.13355455 -99.875 291.8125 C-100.47957031 291.21308594 -101.08414063 290.61367188 -101.70703125 289.99609375 C-114.16195341 277.06488394 -120.0264685 259.06286061 -120.02217102 241.36499023 C-120.02768605 240.12845231 -120.02768605 240.12845231 -120.0333125 238.86693382 C-120.04428168 236.11831402 -120.04818163 233.3697321 -120.05200195 230.62109375 C-120.05827179 228.64442324 -120.06491905 226.66775389 -120.07191467 224.69108582 C-120.09289813 218.21073213 -120.10331271 211.73037838 -120.11328125 205.25 C-120.11733114 203.01316313 -120.12144813 200.77632637 -120.12563133 198.53948975 C-120.14467158 188.02681964 -120.15890425 177.5141565 -120.1672433 167.00147247 C-120.17700727 154.89460157 -120.20330988 142.7879139 -120.24374419 130.68110752 C-120.27397628 121.30501182 -120.28871895 111.92896844 -120.29202431 102.55282497 C-120.29436693 96.9615559 -120.30322442 91.37048284 -120.32848549 85.77926636 C-120.35189519 80.51293423 -120.35594788 75.2469254 -120.34572411 69.98055458 C-120.34523174 68.05821973 -120.35146283 66.13586825 -120.36528015 64.21358299 C-120.46326161 49.76221651 -119.06046368 36.58811676 -112.1875 23.5625 C-111.84356201 22.89976074 -111.49962402 22.23702148 -111.14526367 21.55419922 C-101.56358122 3.72168355 -85.39317811 -7.56689159 -66.671875 -14.34765625 C-43.4689654 -20.74333005 -18.83831258 -14.43386203 0 0 Z " fill="#2EB67D" transform="translate(651.875,177.1875)"/>
<path d="M0 0 C14.09970555 12.36370576 24.43928962 30.26579392 26.35688281 49.08863044 C26.7166117 55.10257092 26.65952337 61.1212767 26.62670898 67.14331055 C26.63050045 69.14573546 26.63600726 71.14815773 26.64308167 73.15057373 C26.65694289 78.54506071 26.64593372 83.93922542 26.62937045 89.33369422 C26.61543184 95.0015023 26.62198979 100.66929335 26.62550354 106.33711243 C26.62819807 115.8482477 26.61479311 125.35925622 26.59155273 134.87036133 C26.56492489 145.84327416 26.56320609 156.81597552 26.5749411 167.78890961 C26.58574358 178.37954691 26.5795139 188.97010823 26.56538582 199.56073952 C26.55964976 204.05286279 26.55968983 208.54493002 26.56445122 213.03705406 C26.56924587 218.33056472 26.55901675 223.62384561 26.53749657 228.91731262 C26.53196316 230.85218341 26.53143145 232.78707643 26.53644943 234.72194862 C26.55934645 244.8220003 26.37557788 254.12165997 23.125 263.8125 C22.90249793 264.48405971 22.67999586 265.15561941 22.4507513 265.84752941 C19.35497626 274.48098089 14.83851073 281.69952611 9.125 288.8125 C8.50625 289.63878906 7.8875 290.46507812 7.25 291.31640625 C-3.80780621 304.30526317 -22.34550675 313.49783821 -39.16308594 315.01953125 C-59.15357011 316.16231107 -77.61564533 311.41528364 -93.1328125 298.38671875 C-95.4809712 296.26495203 -97.71973506 294.13355455 -99.875 291.8125 C-100.47957031 291.21308594 -101.08414062 290.61367188 -101.70703125 289.99609375 C-113.42696762 277.82797626 -120.02617736 260.32416044 -120.02217102 243.52957153 C-120.02584771 242.69875466 -120.0295244 241.86793779 -120.0333125 241.01194465 C-120.04432053 238.22947373 -120.04818835 235.44704019 -120.05200195 232.66455078 C-120.05826899 230.66847109 -120.064916 228.67239257 -120.07191467 226.67631531 C-120.09293633 220.12015594 -120.1033182 213.56399639 -120.11328125 207.0078125 C-120.11733011 204.74683495 -120.12144707 202.48585752 -120.12563133 200.22488022 C-120.14468218 189.59687307 -120.15891106 178.96887284 -120.1672433 168.3408519 C-120.17700288 156.09586055 -120.20328951 143.85105058 -120.24374419 131.60612309 C-120.27397609 122.12815774 -120.28871905 112.65024416 -120.29202431 103.17223155 C-120.29436754 97.51833536 -120.30323244 91.86463295 -120.32848549 86.21078873 C-120.35189386 80.88374678 -120.35594838 75.55702443 -120.34572411 70.22994423 C-120.34523166 68.2850354 -120.35146517 66.34011015 -120.36528015 64.39525032 C-120.46257058 49.87482431 -119.09441943 36.65246957 -112.1875 23.5625 C-111.84356201 22.89976074 -111.49962402 22.23702148 -111.14526367 21.55419922 C-101.56358122 3.72168355 -85.39317811 -7.56689159 -66.671875 -14.34765625 C-43.4689654 -20.74333005 -18.83831258 -14.43386203 0 0 Z " fill="#E0245A" transform="translate(465.875,547.1875)"/>
<path d="M0 0 C1.97947573 -0.00379166 3.9589488 -0.00929863 5.93841553 -0.01637268 C11.27105663 -0.03023317 16.60337168 -0.01922445 21.93599439 -0.00266147 C27.54147365 0.01128168 33.14693576 0.00471854 38.75242615 0.00120544 C48.16101275 -0.00148917 57.56947124 0.01191511 66.97802734 0.03515625 C77.82593295 0.0617689 88.67362459 0.06350775 99.52155167 0.05176789 C109.99685222 0.0409562 120.47207605 0.04720325 130.94737053 0.06132317 C135.38760143 0.06705282 139.82777562 0.06702423 144.26800728 0.06225777 C149.50407063 0.05745468 154.73990227 0.06772651 159.97592163 0.08921242 C161.88737647 0.09473506 163.79885378 0.09528768 165.71030998 0.09025955 C187.07308257 0.04114763 204.80972407 3.78634325 221.88452148 17.50170898 C223.12588867 18.43370117 223.12588867 18.43370117 224.39233398 19.38452148 C237.12732497 30.20327558 246.12208504 48.04089486 247.88452148 64.50170898 C249.47549183 85.07100646 244.33281257 103.88514341 231.69702148 120.37670898 C219.77669994 133.99700765 202.79500683 143.60035741 184.88452148 146.50170898 C182.11514089 146.60017761 179.37082431 146.6495406 176.60159302 146.64888 C175.77077615 146.65255669 174.93995928 146.65623338 174.08396614 146.66002148 C171.30149521 146.67102951 168.51906168 146.67489733 165.73657227 146.67871094 C163.74049258 146.68497797 161.74441405 146.69162499 159.74833679 146.69862366 C153.19217742 146.71964532 146.63601788 146.73002719 140.07983398 146.73999023 C137.81885643 146.74403909 135.55787901 146.74815605 133.2969017 146.75234032 C122.66889455 146.77139116 112.04089433 146.78562004 101.41287339 146.79395229 C89.16788203 146.80371186 76.92307206 146.82999849 64.67814457 146.87045318 C55.20017922 146.90068508 45.72226564 146.91542803 36.24425304 146.9187333 C30.59035684 146.92107652 24.93665443 146.92994142 19.28281021 146.95519447 C13.95576826 146.97860285 8.62904592 146.98265737 3.30196571 146.97243309 C1.35705688 146.97194064 -0.58786837 146.97817415 -2.5327282 146.99198914 C-17.05315421 147.08927956 -30.27550894 145.72112841 -43.36547852 138.81420898 C-44.02821777 138.470271 -44.69095703 138.12633301 -45.3737793 137.77197266 C-63.7365073 127.90539903 -75.48023828 111.01358586 -81.55297852 91.31420898 C-86.35687681 71.39459623 -82.53503729 51.91788236 -72.11547852 34.50170898 C-68.63897977 29.31908457 -64.68993122 24.74941507 -60.11547852 20.50170898 C-59.25116211 19.61225586 -59.25116211 19.61225586 -58.36938477 18.70483398 C-53.84233271 14.28903274 -49.08107307 11.11921952 -43.49047852 8.25170898 C-42.88872803 7.93484131 -42.28697754 7.61797363 -41.66699219 7.29150391 C-28.12792518 0.67221149 -14.75732873 -0.08137734 0 0 Z " fill="#ECB22E" transform="translate(614.115478515625,530.498291015625)"/>
<path d="M0 0 C1.97947573 -0.00379166 3.9589488 -0.00929863 5.93841553 -0.01637268 C11.27105663 -0.03023317 16.60337168 -0.01922445 21.93599439 -0.00266147 C27.54147365 0.01128168 33.14693576 0.00471854 38.75242615 0.00120544 C48.16101275 -0.00148917 57.56947124 0.01191511 66.97802734 0.03515625 C77.82593295 0.0617689 88.67362459 0.06350775 99.52155167 0.05176789 C109.99685222 0.0409562 120.47207605 0.04720325 130.94737053 0.06132317 C135.38760143 0.06705282 139.82777562 0.06702423 144.26800728 0.06225777 C149.50407063 0.05745468 154.73990227 0.06772651 159.97592163 0.08921242 C161.88737647 0.09473506 163.79885378 0.09528768 165.71030998 0.09025955 C187.07308257 0.04114763 204.80972407 3.78634325 221.88452148 17.50170898 C223.12588867 18.43370117 223.12588867 18.43370117 224.39233398 19.38452148 C236.66619608 29.81153286 246.10376063 47.56130595 247.88452148 63.50170898 C249.47051272 84.47655606 244.60778221 103.5262676 231.69702148 120.37670898 C219.17228899 134.68761467 201.71672305 143.89319849 182.88452148 146.50170898 C180.10031914 146.59835401 177.34110197 146.64955341 174.55726624 146.64888 C173.73376204 146.65255669 172.91025785 146.65623338 172.06179899 146.66002148 C169.31007313 146.67100962 166.55838509 146.6748939 163.80664062 146.67871094 C161.83011761 146.68497941 159.85359577 146.69162655 157.8770752 146.69862366 C151.39128433 146.71962584 144.90549333 146.73002444 138.41967773 146.73999023 C136.18191452 146.74403963 133.94415144 146.7481566 131.70638847 146.75234032 C121.18837558 146.77138581 110.67036967 146.78561658 100.15234286 146.79395229 C88.03697186 146.80371392 75.92178409 146.83000821 63.80647761 146.87045318 C54.42615582 146.90068598 45.04588633 146.91542806 35.66551679 146.9187333 C30.07087942 146.92107613 24.47643792 146.92993621 18.8818531 146.95519447 C13.61143043 146.97860492 8.34133079 146.98265656 3.07086945 146.97243309 C1.14692289 146.97194072 -0.77704027 146.97817202 -2.70093727 146.99198914 C-17.15742378 147.08992101 -30.3350895 145.68969074 -43.36547852 138.81420898 C-44.02821777 138.470271 -44.69095703 138.12633301 -45.3737793 137.77197266 C-63.72191678 127.91323874 -75.44392216 111.04489041 -81.55297852 91.37670898 C-86.41215671 71.26976475 -82.53756953 52.08260447 -72.11547852 34.50170898 C-68.64279458 29.31764076 -64.68903244 24.74858049 -60.11547852 20.50170898 C-59.25116211 19.61225586 -59.25116211 19.61225586 -58.36938477 18.70483398 C-53.84233271 14.28903274 -49.08107307 11.11921952 -43.49047852 8.25170898 C-42.88872803 7.93484131 -42.28697754 7.61797363 -41.66699219 7.29150391 C-28.12792518 0.67221149 -14.75732873 -0.08137734 0 0 Z " fill="#36C5F0" transform="translate(245.115478515625,345.498291015625)"/>
<path d="M0 0 C15.29775332 11.98177899 25.70663139 29.12025558 28.41796875 48.45703125 C28.91995664 54.91757757 28.76945048 61.40852362 28.7109375 67.8828125 C28.70532933 69.72510937 28.70106502 71.56741077 28.69807434 73.40971375 C28.68672159 78.21504474 28.65733896 83.02009564 28.6239624 87.82531738 C28.59305299 92.74613661 28.57952478 97.66700192 28.56445312 102.58789062 C28.53245833 112.21105931 28.48138051 121.83402182 28.41796875 131.45703125 C17.8206748 131.52686315 7.22343653 131.5800099 -3.37404156 131.61246777 C-8.2960752 131.62805411 -13.2179502 131.64916232 -18.13989258 131.68334961 C-22.89911752 131.71619587 -27.65819088 131.73393699 -32.41752052 131.74166298 C-34.22379756 131.7471615 -36.03006728 131.75789734 -37.83627892 131.77422142 C-51.29753663 131.89092673 -63.76668347 131.13301614 -75.89453125 124.64453125 C-76.91051392 124.11786865 -76.91051392 124.11786865 -77.94702148 123.58056641 C-82.87264936 120.97200803 -87.33588007 118.07934032 -91.58203125 114.45703125 C-92.14664062 114.03421875 -92.71125 113.61140625 -93.29296875 113.17578125 C-106.38699505 102.98495535 -115.48703978 84.82061329 -117.58203125 68.45703125 C-119.19310532 45.73940886 -113.59067781 25.91153132 -98.58203125 8.45703125 C-72.65344335 -19.28474461 -30.24865883 -22.27302023 0 0 Z " fill="#36C5F0" transform="translate(464.58203125,175.54296875)"/>
<path d="M0 0 C15.08763207 11.81720409 26.07821554 29.24206687 28.41796875 48.45703125 C30.27724854 69.99250607 25.09567505 89.34500127 11.23046875 106.20703125 C-0.56809492 119.83476686 -18.36435099 130.1616968 -36.65931702 131.62294769 C-42.40766121 131.87462682 -48.1581628 131.80182892 -53.91015625 131.75 C-55.75388237 131.74439317 -57.597613 131.74012822 -59.44134521 131.73713684 C-64.25491031 131.72577359 -69.06819662 131.69638142 -73.88165283 131.6630249 C-78.80908438 131.63213863 -83.73656171 131.61859214 -88.6640625 131.60351562 C-98.30350678 131.57150219 -107.94274568 131.52041104 -117.58203125 131.45703125 C-117.65186315 120.8597373 -117.7050099 110.26249903 -117.73746777 99.66502094 C-117.75305411 94.7429873 -117.77416232 89.8211123 -117.80834961 84.89916992 C-117.84119587 80.13994498 -117.85893699 75.38087162 -117.86666298 70.62154198 C-117.8721615 68.81526494 -117.88289734 67.00899522 -117.89922142 65.20278358 C-118.01494437 51.85483528 -117.31084438 39.37253969 -110.89453125 27.33203125 C-110.37125244 26.32547485 -110.37125244 26.32547485 -109.83740234 25.29858398 C-99.87424893 6.60033536 -84.85187991 -5.73857978 -64.7578125 -12.4921875 C-42.1823272 -18.31315165 -18.79238792 -13.8374147 0 0 Z " fill="#2EB67D" transform="translate(834.58203125,360.54296875)"/>
<path d="M0 0 C1.81844733 0.00560974 3.63689926 0.00987331 5.45535278 0.01286316 C10.19326762 0.0242036 14.93089736 0.05357496 19.66870117 0.0869751 C24.52258449 0.11791171 29.37651482 0.13141842 34.23046875 0.14648438 C43.71887383 0.17845732 53.20706927 0.2295194 62.6953125 0.29296875 C62.7651978 10.61222314 62.81831775 20.9314201 62.85074902 31.25086403 C62.86632394 36.04395607 62.88741057 40.83688475 62.92163086 45.62988281 C62.95451876 50.26591953 62.97222676 54.90180031 62.97994423 59.53794479 C62.98543544 61.29594752 62.99615634 63.0539429 63.01250267 64.8118782 C63.21645977 87.680952 57.98202823 107.89568684 41.9765625 125.1015625 C27.12566776 139.36757611 8.2170764 147.02206333 -12.32006836 146.69091797 C-29.13044162 146.06875227 -44.46496745 140.24628443 -57.3046875 129.29296875 C-57.86929688 128.87015625 -58.43390625 128.44734375 -59.015625 128.01171875 C-72.46220315 117.5465086 -80.85899202 99.91828892 -83.3046875 83.29296875 C-85.28675642 61.8014824 -79.58875182 42.8016993 -66.4140625 25.74609375 C-48.85762208 5.32860378 -25.8079875 -0.23692612 0 0 Z " fill="#E0245A" transform="translate(244.3046875,530.70703125)"/>
<path d="M0 0 C10.56271878 -0.09321491 21.12533762 -0.16402387 31.68838596 -0.20724869 C36.59473396 -0.22800808 41.50079786 -0.25610932 46.40698242 -0.30175781 C51.15326108 -0.34563558 55.89926875 -0.36922437 60.64573479 -0.37950897 C62.44479569 -0.3868259 64.24384396 -0.40111096 66.04278755 -0.42292023 C80.25826363 -0.58820108 93.28576067 0.86867326 106.125 7.5625 C107.11028687 8.06958496 107.11028687 8.06958496 108.11547852 8.58691406 C125.9813526 18.21148206 137.91479661 34.25577597 144.09765625 53.3984375 C149.2412062 73.92479033 145.72644775 93.91635723 135.18896484 112.09521484 C124.52508735 129.17931592 108.16866995 139.22987547 89.1875 144.9375 C69.74790392 149.19569724 50.88934138 144.92315788 34 135 C31.15943827 133.16301615 28.57075963 131.19306509 26 129 C25.43539062 128.5771875 24.87078125 128.154375 24.2890625 127.71875 C15.99857394 121.26642406 10.33056921 112.49446022 6.125 103 C5.85107422 102.38463379 5.57714844 101.76926758 5.29492188 101.13525391 C0.10272186 88.69909742 -0.41242909 76.92963036 -0.29296875 63.671875 C-0.28736192 61.82814888 -0.28309697 59.98441825 -0.28010559 58.14068604 C-0.26874234 53.32712094 -0.23935017 48.51383463 -0.20599365 43.70037842 C-0.17510738 38.77294687 -0.16156089 33.84546954 -0.14648438 28.91796875 C-0.11447094 19.27852447 -0.06337979 9.63928557 0 0 Z " fill="#ECB22E" transform="translate(531,716)"/>
</svg>
